<mxfile host="app.diagrams.net" modified="2024-02-02T15:57:57.420Z" agent="Mozilla/5.0 (Macintosh; Intel Mac OS X 10_15_7) AppleWebKit/537.36 (KHTML, like Gecko) Chrome/121.0.0.0 Safari/537.36" etag="WxzmP1KQHQqafyL8Ihdk" version="23.1.1" type="device">
  <diagram id="Zhhvi1gfNnv4PBheT3I2" name="Page-1">
    <mxGraphModel dx="1430" dy="702" grid="1" gridSize="10" guides="1" tooltips="1" connect="1" arrows="1" fold="1" page="1" pageScale="1" pageWidth="850" pageHeight="1100" math="0" shadow="0">
      <root>
        <mxCell id="0" />
        <mxCell id="1" parent="0" />
        <mxCell id="bEIdYuzGrpSFHSuJOVbc-5" style="edgeStyle=orthogonalEdgeStyle;rounded=0;orthogonalLoop=1;jettySize=auto;html=1;entryX=0;entryY=0.5;entryDx=0;entryDy=0;entryPerimeter=0;" parent="1" source="bEIdYuzGrpSFHSuJOVbc-1" target="bEIdYuzGrpSFHSuJOVbc-2" edge="1">
          <mxGeometry relative="1" as="geometry" />
        </mxCell>
        <mxCell id="bEIdYuzGrpSFHSuJOVbc-1" value="Repository Code &lt;br&gt;(API Spec + Mule Project)" style="dashed=0;outlineConnect=0;html=1;align=center;labelPosition=center;verticalLabelPosition=bottom;verticalAlign=top;shape=mxgraph.weblogos.github" parent="1" vertex="1">
          <mxGeometry x="120" y="250" width="75" height="75" as="geometry" />
        </mxCell>
        <mxCell id="bEIdYuzGrpSFHSuJOVbc-4" value="uses" style="edgeStyle=orthogonalEdgeStyle;rounded=0;orthogonalLoop=1;jettySize=auto;html=1;" parent="1" source="bEIdYuzGrpSFHSuJOVbc-2" target="bEIdYuzGrpSFHSuJOVbc-3" edge="1">
          <mxGeometry x="0.1561" y="-4" relative="1" as="geometry">
            <mxPoint y="1" as="offset" />
          </mxGeometry>
        </mxCell>
        <mxCell id="bEIdYuzGrpSFHSuJOVbc-7" style="edgeStyle=orthogonalEdgeStyle;rounded=0;orthogonalLoop=1;jettySize=auto;html=1;" parent="1" source="bEIdYuzGrpSFHSuJOVbc-2" target="bEIdYuzGrpSFHSuJOVbc-6" edge="1">
          <mxGeometry relative="1" as="geometry" />
        </mxCell>
        <mxCell id="bEIdYuzGrpSFHSuJOVbc-2" value="Scan API Spec&lt;br&gt;Ruleset API Governance" style="sketch=0;points=[[0,0,0],[0.25,0,0],[0.5,0,0],[0.75,0,0],[1,0,0],[0,1,0],[0.25,1,0],[0.5,1,0],[0.75,1,0],[1,1,0],[0,0.25,0],[0,0.5,0],[0,0.75,0],[1,0.25,0],[1,0.5,0],[1,0.75,0]];points=[[0,0,0],[0.25,0,0],[0.5,0,0],[0.75,0,0],[1,0,0],[0,1,0],[0.25,1,0],[0.5,1,0],[0.75,1,0],[1,1,0],[0,0.25,0],[0,0.5,0],[0,0.75,0],[1,0.25,0],[1,0.5,0],[1,0.75,0]];outlineConnect=0;fontColor=#232F3E;gradientColor=#F34482;gradientDirection=north;fillColor=#BC1356;strokeColor=#ffffff;dashed=0;verticalLabelPosition=bottom;verticalAlign=top;align=center;html=1;fontSize=12;fontStyle=0;aspect=fixed;shape=mxgraph.aws4.resourceIcon;resIcon=mxgraph.aws4.management_and_governance;" parent="1" vertex="1">
          <mxGeometry x="290" y="250" width="48" height="48" as="geometry" />
        </mxCell>
        <mxCell id="bEIdYuzGrpSFHSuJOVbc-3" value="Anypoint CLI (v4)" style="sketch=0;outlineConnect=0;fontColor=#232F3E;gradientColor=none;fillColor=#D45B07;strokeColor=none;dashed=0;verticalLabelPosition=bottom;verticalAlign=top;align=center;html=1;fontSize=12;fontStyle=0;aspect=fixed;pointerEvents=1;shape=mxgraph.aws4.ecs_copilot_cli;" parent="1" vertex="1">
          <mxGeometry x="290" y="430" width="48" height="44" as="geometry" />
        </mxCell>
        <mxCell id="bEIdYuzGrpSFHSuJOVbc-10" style="edgeStyle=orthogonalEdgeStyle;rounded=0;orthogonalLoop=1;jettySize=auto;html=1;entryX=0.172;entryY=0.284;entryDx=0;entryDy=0;entryPerimeter=0;" parent="1" source="bEIdYuzGrpSFHSuJOVbc-6" target="bEIdYuzGrpSFHSuJOVbc-9" edge="1">
          <mxGeometry relative="1" as="geometry" />
        </mxCell>
        <mxCell id="bEIdYuzGrpSFHSuJOVbc-11" value="Yes:&lt;br&gt;Notify Admin&lt;br&gt;&amp;amp; API Owners" style="edgeLabel;html=1;align=center;verticalAlign=middle;resizable=0;points=[];" parent="bEIdYuzGrpSFHSuJOVbc-10" vertex="1" connectable="0">
          <mxGeometry x="0.0091" relative="1" as="geometry">
            <mxPoint as="offset" />
          </mxGeometry>
        </mxCell>
        <mxCell id="bEIdYuzGrpSFHSuJOVbc-14" value="No" style="edgeStyle=orthogonalEdgeStyle;rounded=0;orthogonalLoop=1;jettySize=auto;html=1;" parent="1" source="bEIdYuzGrpSFHSuJOVbc-6" target="bEIdYuzGrpSFHSuJOVbc-15" edge="1">
          <mxGeometry relative="1" as="geometry">
            <mxPoint x="438" y="400" as="targetPoint" />
          </mxGeometry>
        </mxCell>
        <mxCell id="bEIdYuzGrpSFHSuJOVbc-6" value="AT least 1 alert" style="rhombus;whiteSpace=wrap;html=1;" parent="1" vertex="1">
          <mxGeometry x="410" y="257.5" width="55" height="60" as="geometry" />
        </mxCell>
        <mxCell id="bEIdYuzGrpSFHSuJOVbc-13" value="Abort Deployment" style="edgeStyle=orthogonalEdgeStyle;rounded=0;orthogonalLoop=1;jettySize=auto;html=1;" parent="1" source="bEIdYuzGrpSFHSuJOVbc-9" target="bEIdYuzGrpSFHSuJOVbc-12" edge="1">
          <mxGeometry x="0.0759" y="-4" relative="1" as="geometry">
            <mxPoint x="-4" y="-4" as="offset" />
          </mxGeometry>
        </mxCell>
        <mxCell id="bEIdYuzGrpSFHSuJOVbc-9" value="Slack Channel" style="shape=image;html=1;verticalAlign=top;verticalLabelPosition=bottom;labelBackgroundColor=#ffffff;imageAspect=0;aspect=fixed;image=https://cdn2.iconfinder.com/data/icons/social-media-2285/512/1_Slack_colored_svg-128.png" parent="1" vertex="1">
          <mxGeometry x="570" y="271" width="58" height="58" as="geometry" />
        </mxCell>
        <mxCell id="bEIdYuzGrpSFHSuJOVbc-12" value="" style="ellipse;html=1;shape=endState;fillColor=#000000;strokeColor=#ff0000;" parent="1" vertex="1">
          <mxGeometry x="780" y="272.5" width="30" height="30" as="geometry" />
        </mxCell>
        <mxCell id="bEIdYuzGrpSFHSuJOVbc-17" style="edgeStyle=orthogonalEdgeStyle;rounded=0;orthogonalLoop=1;jettySize=auto;html=1;" parent="1" source="bEIdYuzGrpSFHSuJOVbc-15" target="bEIdYuzGrpSFHSuJOVbc-16" edge="1">
          <mxGeometry relative="1" as="geometry" />
        </mxCell>
        <mxCell id="bEIdYuzGrpSFHSuJOVbc-15" value="Publish API Spec to Exchange" style="shape=image;verticalLabelPosition=bottom;verticalAlign=top;imageAspect=0;aspect=fixed;image=data:image/png,iVBORw0KGgoAAAANSUhEUgAAAKgAAACnCAYAAACFHRdhAAAACXBIWXMAAC4jAAAuIwF4pT92AAAOVklEQVR4nO2d7XHbSBKGh1f7X85AuAisi8DcCMyLAHQE5kYgKgJTEZiIYKkIlsxAjODADMwIeAX7BQ1R3YMBMMD0AP1UsexdWdKQfNlf0zM9u1wuRlGk8oe+M+2YZXlijEkcv/n1kiY/pD2HGFALSjDL8g/GmAcIMMHfy/931/HHH40xhVhzPF6LPy9p8trLk4kcFegvQc6NMXMIsHjcB1rKEYItHnsV7UQFWhHkwhjzUcCSOM6FUPHYXdIkl7nM/piEQOGyFxVRdnXToTgVQjXGbKdiXUct0FmWLyDIVMByfDMJsY5OoMiuV8aYpSdLWSY1e/x3+ae5pMme/7bresrkylQSrWoS5iPeLda4QRgwqmrBaASKuLIQ5ucOP+YAAQ6aWWPtSSVRaxsXFzHrthDrWOLV6AU6y/LCUq5bWqID3KSojBlWt0zk5i0Fm8H911p5yUQr0JbCPEOQpSijcIcIW8okr6mHKD6E61iFGp1AkfhsGgozQ3y263FpgwDrusSjiWXNINSoXH80Ap1l+QOE+cnxW07499uxbjO2TAifIdQ4vId0gcJiFK78q+O3RO3S2lCp87qGPEWos7qkyVbes3mLaIHCnW8drUOULsw3iM2Xjp6m+DAvJb9mIgUKi7B1TAhUmAQoXW0dLerTJU3Wgy/SAXECbWA1D3BTk2+osNGg2iHSmooRaINY84QXcjIxZlfw2q7wsH3wxcWmIgSKDH3rUDYR64piAFn/1iE+zS5pspTwlIIL1NGlqzv3iONrXuzvL0K7/KACnWV5YQ0fa/6ZWs0ecExEC5c/D2kYggl0luXbmja4I2JNtZo9MsvyFWJ/mzX9EiouHVyg+OTua+LNDC5dD5oNgGMO8NclTTaDr21IgTqKM9indco4uvzBk6fBBOogzuDxjuKUFwwq0n8N8UscxFnEmw8qzvAgIf0Cg0GRIn8YhN4tqKM45xpvygJx6d6SPA1iSXsVqIM4xRSElfdIEGlvLl7FGT8IuR7g5SgKd99rZt9nDLpTccYPdpLmFpF+RUNKL/QiUATR3H6vijMykB/M0ahD8R3bp97xLlDsTHA7RCrOSIFIF5bsfouY1SteBYom2W/Ml49o91LiFekrLCkl0iKR2iH38IY3gaKVizs1qaWkkQCRcu78HrtR3vBpQXdMOeKMpg8V50hAs/gX5tl8xm6UF7wIFKUGLmNf6A7R+EC/RMY8sUeEe53pXKjHQv5hvhykA0YZjlmW75mKzQnb1508ZycLioCYiztfVJyTgMvs73FxRie6unju2MAJZ7OVkVMpP1GkXeujrQUK1871Di40KZoOSJqemSe86VJ6aiXQSnMrxZMmRdPjkiYrZjv0HkdKWtHWgq6YiwCOesBt0nBh3de2u0yNBYqCPNdxrXHnhIHnfGJegVYJUxsLyv2iZ3XtCvRBNZV8atP11EiglsTo3CXOUMYDkmNOiI010tSCcr9AjwgrV5DVH4hX5B7dbs447yRZdowOlzTxsq2ljAfkKv8jnlDhbRNXg9bEgnLWU1278g504lN79XdN2i6dLGgM1hMB+AJDsvombzLiJcDaRFzoCyv6Suw2ni9p4vRauAqUawj4U8I9nQ73PPWF9RaUSq+C6+AHn4i4ocVyEYTT+mpdPAqs1At8ECLOdcBZnN9r2srWgcRpsDbvRzBawJUlnUJDlxiUixekxJ6hj5GQvx/W03UySV8EP2KDZIiKRe9dGkmsAsWLTFmnoxDrORcwWptrmJFgvRIBazAWY1ZbuP+j5uvcD5De58ltt3Ul8RBODLm2UOHFG4qEbZblL8SHuTgektgSujqBUi7iLP16xL4aVmCxOwlU8tp6ZsN4m6UtXGRdPAJsqmNJ7+5UGoOQkNqjt7p5Wwwaq3tX5EJp595WbbAJlMqwjjrRTekAd36NtaKkQC3uXa2n0hoYN6qJhC03cRaUU3T089aV4FA5DOvmOYFSin7RljrFA5yRI63oO4Fig59y7zobU+kMjBx1uM5NoLi9jELdu+ILys1/pI4nUwKllHzS7F3xCOeN3xlHSqBUsKrWU/EGDldS1+XYBarxpzIglKZqLSgXf+pxYsU3lEDfXeF5K1DKvWv8qfQBafRuG8BdBKrWU/GOpZ/4jQZVoEpIqG3PN03WV4GiBkV1p2uCpPQFFTqyFpRredL4U+mL7gLVBEnpEco7v/HiVYFSB+mpGEFRfEE2H1Uz+apApZwAVCaCy3WddQLVBEnpG2rL8xpu1p3qjJJZlncb/tQjA6+NG/wqiVfiePQ13KxaUOoMtfQEScL6uBHVEpq7o69h1119I1qgljMuQ0Iew0Z8xYl3KGLoQqM+yFcX731efABC3j90qjlIGHJtx0juMKCsPOniowSW6s8A1upQN2L8kiaFBfuvxLXFwiiSJDQeJL4m7Drww3WiCUS6G3Bt+Zg2V34KFI3K0SPhxj0OyWuTTOniSYHqi6qEphQot+Wku0tKUH4K1BJPqUCVoIyhzKSMGBWoIprR7MVj2seCOhnYA0WdcYMSUt26PqBgP9TaXrC2WBJcaxhZZ0GHGDzViUIAsyx/xSyeIQRg0LfwN+YzsUCc+4HXVlyz/Q8+sDFACfSaE1UFSl3oJGFSRR3rAd/8W9KaUSqbgGt7HHBzwDfXqlJVoLFui4mcRYQSXeihBsHnJDnQycWLtqBCLAQ36kVCiS6GMiF11dLVxVeTJGoep/gYlOHPnn5u8YH9FtHaQoUXTlDXLYKrN6/L4mOIQd/RVwY7y7r3YEheWwA4fZFJUu0RUEXxDHfU3T1JijgTVORDxchvTkhcBWrZj4/SzStRQGnrjaG8zeKpWqg2jCh9UXtZ3a1AKSuqLl7xDurEtZfVuQhUdKlCiRan27xdBKqJktIH3G3efAxqqdGpQBXfUJp6pz9qq5O6CEEFqngD8ScVOr7z4JRAKSv6ybItpShNcZ5mSAmUa8JVK6r4wnma4TuBWqaA2foeFaUJTvEnKVBAWVEVqNIZNHhT9U/SczcR6F1N97iiuEBqiDvfxQmUKzepQJWuUBp64X4mKVAUS6lvWmg2r7RlluXLJu7d1Bz5oE4s3qkVVTqwJL71fEkT9nQsK1DEBFQ2H8NBLEUYKM5T57esdwvUHZqjlP1R9+aVFnCGzXq3QJ1AueutKVOtKCTIWyjNnOrOaFkFahlSkOrVjEoDuOTIdr//T1zuZtoyscNaqiXVOUlXQk8ZKaHc+9llyEPt7XbIsKgnKqHkJGEOEHVMxgi5qSX4WWSUlqjLGbYuQx5cr1+kLqK6C53R4wmGnpNEZqFC5iRJGEPDXWJW695NA4FyJadHAbHoKuDIv2PNC70IuLaDrb44BBbrmblOInESKCwV90YEveYPlmoewJJmDnOSQq3tOfSGCsK/zpqZXS5uMTt+Yc5kY/9xnRvUJ7DmQ1j016ZDsoZam5SLa3E/6SPxpcJ6OifXzgI1v032d+JLhTvR4r3yE3wYXxlj9u8mg8Ya3VFvyeg/QbyKYuDaKXE+NZ2C12aIApe5b7TTSUHP8GfihTi7Zu5VGgsUTSRU0H/XZgHKeKhJjFZthtu2HUPDufNUG0kmzYYpK7UuebUSKOKIJ+bLO3X10wOunbuTv/WGTutBXpc0WTPbfHeRDNJXPAGDxL3nT11KkF0nzXGu/vMsy7WxeTrsmKz9CEPWmk4CxSeDc/XfZlmul9+OHBTkuUknnUuPjQr17A/5NemNumunqJk+tMneFPkg7vyb+fJflzTpXNXxNUyWa4q4txxhViIG3pGLOw8+xGl8CRRZPWfOP9bNtFTiAkkRF3eefTaqeBvHjQL+M/PlNKLhpoqFyoBcqt5p6jq8muJ1XvwlTVaW1rJH3a8fBVvLtfBffHe1eRUoWFiOQXxXkcYLQjVqn92gjc57KOcli3/3Q+3tVgafNI1LIwLi5HaKXi5p0kuDdB8WtEya5pbjDmpJI6JGnMc+T/f2IlDzu4hv+1SpSCPAQZxek6JbenHxVSxd+CXq7gVSKSVxu0S9i9MMIVDjJtJG51SUfqmUkrhsfRBxmqEEatxEWtxHutRt0bBgh2hvSXAHE6fpMwa9BW78iyVxKsoXe73zKRwwImLEaYa0oNdfWP8JPcOSWu+NVLy/L8Xe+VfLPxlcnCaEQM1vke4s22UFz9iZUvp9LxK8F7ahwVnbM0VdCSJQ4xaIm7LGJuFSiDGCdrmtxZuZ0IYimEDN21OAXJ3NwOWvfbVvKW+OaHDbluXrvgp+v1NIgV4X8et4yLeaf6bW1ANIhLiLFUqKRvOFiOuMJAjUuMelBi19ay1HNQOv78ZSeC8RVe4TI1Dj7nqMFPcTA3hN1zUZupEaSokSaIlj8G7gilZaknoPhLnCo+51PMKlB7+R+RaRAjXNrKlBk/RGhdpYmGe8bmJPO4gVaAmsKXelyi0nuKnJuX7UM5eOwjT4UC8lWs0q4gVqmlsFU7lJbSv9DegK7sJa1pTqqkQVFkUh0BJYiXWDN8MgK92NyaridVjgA+viWUwM7pwiKoGWNCiZVDmjjLWLMVaFKOcQpktcXlJ6k02MpbkoBVoC97Zq+IYZvGl7CHYvNQzAB3GBh21LmCJqYZZELdCSlq6/ygmCfYVgB99BQZz9ACs5x99d4u1bTqh+RC3MklEItKQytLRJbMZxhGBz/PmjzXQPYo3ltI/yMcefXdd7QFI4qgrGqARapZLdLlpaIhtnZgxj8f8+EONmPrRw0S6U1nK01YrRCrQEVrWM4+Y9iHVoToidt1NonBm9QG9B4b/Mhru61aE4lEnd1Lq5JifQKpXSTZmc9OGG21AKci9lclwoJi1QCsSuD4gjHzwlMByHMvkqEzLtd32LCtSRm1mbD0h8qpRloh9MApWX89unbhWboAJV5GKM+T+4HShTf+PpZgAAAABJRU5ErkJggg==" parent="1" vertex="1">
          <mxGeometry x="425" y="396" width="50.3" height="50" as="geometry" />
        </mxCell>
        <mxCell id="bEIdYuzGrpSFHSuJOVbc-19" value="Checkout" style="edgeStyle=orthogonalEdgeStyle;rounded=0;orthogonalLoop=1;jettySize=auto;html=1;" parent="1" source="bEIdYuzGrpSFHSuJOVbc-16" edge="1">
          <mxGeometry relative="1" as="geometry">
            <mxPoint x="810" y="430" as="targetPoint" />
          </mxGeometry>
        </mxCell>
        <mxCell id="bEIdYuzGrpSFHSuJOVbc-16" value="Invoke Test Suite &lt;br&gt;Mocking Service" style="aspect=fixed;html=1;points=[];align=center;image;fontSize=12;image=img/lib/azure2/networking/Private_Endpoint.svg;" parent="1" vertex="1">
          <mxGeometry x="620" y="399" width="48" height="44" as="geometry" />
        </mxCell>
        <mxCell id="bEIdYuzGrpSFHSuJOVbc-21" style="edgeStyle=orthogonalEdgeStyle;rounded=0;orthogonalLoop=1;jettySize=auto;html=1;" parent="1" source="bEIdYuzGrpSFHSuJOVbc-18" target="bEIdYuzGrpSFHSuJOVbc-20" edge="1">
          <mxGeometry relative="1" as="geometry" />
        </mxCell>
        <mxCell id="bEIdYuzGrpSFHSuJOVbc-18" value="Codebase&lt;br&gt;Mule App" style="verticalLabelPosition=bottom;html=1;verticalAlign=top;align=center;strokeColor=none;fillColor=#00BEF2;shape=mxgraph.azure.code_file;pointerEvents=1;" parent="1" vertex="1">
          <mxGeometry x="820" y="396" width="47.5" height="50" as="geometry" />
        </mxCell>
        <mxCell id="bEIdYuzGrpSFHSuJOVbc-29" style="edgeStyle=orthogonalEdgeStyle;rounded=0;orthogonalLoop=1;jettySize=auto;html=1;" parent="1" source="bEIdYuzGrpSFHSuJOVbc-20" target="bEIdYuzGrpSFHSuJOVbc-28" edge="1">
          <mxGeometry relative="1" as="geometry" />
        </mxCell>
        <mxCell id="bEIdYuzGrpSFHSuJOVbc-20" value="Build&lt;br&gt;(Java 11 + Maven 3.8)&lt;br&gt;Mule Maven Plugin" style="shape=image;html=1;verticalAlign=top;verticalLabelPosition=bottom;labelBackgroundColor=#ffffff;imageAspect=0;aspect=fixed;image=https://cdn0.iconfinder.com/data/icons/google-material-design-3-0/48/ic_build_48px-128.png" parent="1" vertex="1">
          <mxGeometry x="930" y="474" width="48" height="48" as="geometry" />
        </mxCell>
        <mxCell id="bEIdYuzGrpSFHSuJOVbc-22" value="Use Exchange REST &lt;br&gt;API v2" style="shape=note;whiteSpace=wrap;html=1;backgroundOutline=1;darkOpacity=0.05;" parent="1" vertex="1">
          <mxGeometry x="515" y="500" width="65" height="120" as="geometry" />
        </mxCell>
        <mxCell id="bEIdYuzGrpSFHSuJOVbc-23" value="CI/CD Server (Bamboo)&#xa;" style="image;image=img/lib/atlassian/Bamboo_Logo.svg;" parent="1" vertex="1">
          <mxGeometry x="811.75" y="80" width="64" height="74" as="geometry" />
        </mxCell>
        <mxCell id="bEIdYuzGrpSFHSuJOVbc-24" value="" style="endArrow=none;dashed=1;html=1;dashPattern=1 3;strokeWidth=2;rounded=0;entryX=0;entryY=0.5;entryDx=0;entryDy=0;entryPerimeter=0;" parent="1" source="bEIdYuzGrpSFHSuJOVbc-15" target="bEIdYuzGrpSFHSuJOVbc-22" edge="1">
          <mxGeometry width="50" height="50" relative="1" as="geometry">
            <mxPoint x="375" y="550" as="sourcePoint" />
            <mxPoint x="425" y="500" as="targetPoint" />
          </mxGeometry>
        </mxCell>
        <mxCell id="bEIdYuzGrpSFHSuJOVbc-31" style="edgeStyle=orthogonalEdgeStyle;rounded=0;orthogonalLoop=1;jettySize=auto;html=1;" parent="1" source="bEIdYuzGrpSFHSuJOVbc-28" target="bEIdYuzGrpSFHSuJOVbc-30" edge="1">
          <mxGeometry relative="1" as="geometry" />
        </mxCell>
        <mxCell id="bEIdYuzGrpSFHSuJOVbc-28" value="Execute&lt;br&gt;Unit Tests&lt;br&gt;Uses (MUnit Maven Plugin)" style="aspect=fixed;html=1;points=[];align=center;image;fontSize=12;image=img/lib/azure2/other/Load_Testing.svg;" parent="1" vertex="1">
          <mxGeometry x="1120" y="443" width="59.199999999999996" height="68" as="geometry" />
        </mxCell>
        <mxCell id="bEIdYuzGrpSFHSuJOVbc-34" style="edgeStyle=orthogonalEdgeStyle;rounded=0;orthogonalLoop=1;jettySize=auto;html=1;" parent="1" source="bEIdYuzGrpSFHSuJOVbc-30" target="bEIdYuzGrpSFHSuJOVbc-9" edge="1">
          <mxGeometry relative="1" as="geometry">
            <Array as="points">
              <mxPoint x="1260" y="230" />
              <mxPoint x="599" y="230" />
            </Array>
          </mxGeometry>
        </mxCell>
        <mxCell id="bEIdYuzGrpSFHSuJOVbc-35" value="NO" style="edgeLabel;html=1;align=center;verticalAlign=middle;resizable=0;points=[];" parent="bEIdYuzGrpSFHSuJOVbc-34" vertex="1" connectable="0">
          <mxGeometry x="-0.8619" y="3" relative="1" as="geometry">
            <mxPoint as="offset" />
          </mxGeometry>
        </mxCell>
        <mxCell id="yFznmug3vTzcYIu3NvbS-5" style="edgeStyle=orthogonalEdgeStyle;rounded=0;orthogonalLoop=1;jettySize=auto;html=1;" edge="1" parent="1" source="bEIdYuzGrpSFHSuJOVbc-30" target="yFznmug3vTzcYIu3NvbS-2">
          <mxGeometry relative="1" as="geometry" />
        </mxCell>
        <mxCell id="yFznmug3vTzcYIu3NvbS-6" value="Deploy&lt;br&gt;Uses&amp;nbsp;&lt;br&gt;Mule Maven Plugin" style="edgeLabel;html=1;align=center;verticalAlign=middle;resizable=0;points=[];" vertex="1" connectable="0" parent="yFznmug3vTzcYIu3NvbS-5">
          <mxGeometry x="-0.2759" y="-1" relative="1" as="geometry">
            <mxPoint as="offset" />
          </mxGeometry>
        </mxCell>
        <mxCell id="bEIdYuzGrpSFHSuJOVbc-30" value="Succeed?&lt;br&gt;&lt;br&gt;+ Coverage: 70%" style="rhombus;whiteSpace=wrap;html=1;" parent="1" vertex="1">
          <mxGeometry x="1230" y="404" width="60" height="70" as="geometry" />
        </mxCell>
        <mxCell id="bEIdYuzGrpSFHSuJOVbc-32" value="Integration Tests&lt;br&gt;(BAT CLI )" style="aspect=fixed;html=1;points=[];align=center;image;fontSize=12;image=img/lib/azure2/general/Web_Test.svg;" parent="1" vertex="1">
          <mxGeometry x="1770" y="298" width="72" height="72" as="geometry" />
        </mxCell>
        <mxCell id="yFznmug3vTzcYIu3NvbS-7" value="Execute&lt;br&gt;Tests" style="edgeStyle=orthogonalEdgeStyle;rounded=0;orthogonalLoop=1;jettySize=auto;html=1;" edge="1" parent="1" source="yFznmug3vTzcYIu3NvbS-2" target="bEIdYuzGrpSFHSuJOVbc-32">
          <mxGeometry relative="1" as="geometry" />
        </mxCell>
        <mxCell id="yFznmug3vTzcYIu3NvbS-2" value="Cloudhub 2.0" style="points=[[0,0],[0.25,0],[0.5,0],[0.75,0],[1,0],[1,0.25],[1,0.5],[1,0.75],[1,1],[0.75,1],[0.5,1],[0.25,1],[0,1],[0,0.75],[0,0.5],[0,0.25]];outlineConnect=0;gradientColor=none;html=1;whiteSpace=wrap;fontSize=12;fontStyle=0;container=1;pointerEvents=0;collapsible=0;recursiveResize=0;shape=mxgraph.aws4.group;grIcon=mxgraph.aws4.group_aws_cloud_alt;strokeColor=#232F3E;fillColor=none;verticalAlign=top;align=left;spacingLeft=30;fontColor=#232F3E;dashed=0;" vertex="1" parent="1">
          <mxGeometry x="1390" y="260" width="110" height="110" as="geometry" />
        </mxCell>
        <mxCell id="yFznmug3vTzcYIu3NvbS-1" value="Replica" style="sketch=0;outlineConnect=0;fontColor=#232F3E;gradientColor=none;strokeColor=#232F3E;fillColor=#ffffff;dashed=0;verticalLabelPosition=bottom;verticalAlign=top;align=center;html=1;fontSize=12;fontStyle=0;aspect=fixed;shape=mxgraph.aws4.resourceIcon;resIcon=mxgraph.aws4.container_2;" vertex="1" parent="yFznmug3vTzcYIu3NvbS-2">
          <mxGeometry x="30" y="30" width="45" height="45" as="geometry" />
        </mxCell>
      </root>
    </mxGraphModel>
  </diagram>
</mxfile>
